<?xml version="1.0" encoding="UTF-8" standalone="no"?>
<svg
   xmlns:dc="http://purl.org/dc/elements/1.1/"
   xmlns:cc="http://creativecommons.org/ns#"
   xmlns:rdf="http://www.w3.org/1999/02/22-rdf-syntax-ns#"
   xmlns:svg="http://www.w3.org/2000/svg"
   xmlns="http://www.w3.org/2000/svg"
   width="21.165709mm"
   height="24.009396mm"
   viewBox="0 0 21.165709 24.009396"
   version="1.1"
   id="svg949">
  <defs
     id="defs943" />
  <metadata
     id="metadata946">
    <rdf:RDF>
      <cc:Work
         rdf:about="">
        <dc:format>image/svg+xml</dc:format>
        <dc:type
           rdf:resource="http://purl.org/dc/dcmitype/StillImage" />
        <dc:title></dc:title>
      </cc:Work>
    </rdf:RDF>
  </metadata>
  <g
     transform="translate(-69.376467,-117.31537)"
     id="layer1">
    <g
       transform="matrix(1.5173165,0,0,1.6383116,-66.973803,34.27325)"
       style="display:inline"
       id="g918">
      <path
         id="path914-0"
         d="m 93.202557,54.577451 c -0.971052,0.309485 -1.869696,0.734702 -2.537301,1.459794 -10e-7,0 -10e-7,0 -10e-7,0 -0.558342,0.614286 -0.83247,1.43186 -0.79988,2.224088 0,0 0,0 10e-7,10e-7 0.132155,2.604208 2.174443,4.516674 3.739463,5.850766 -1.567438,-1.881767 -3.158347,-3.701877 -3.294899,-5.875007 -0.05208,-0.705049 0.16305,-1.433441 0.599428,-1.994387 0.566676,-0.736934 1.42593,-1.249571 2.293189,-1.665255 z"
         style="display:inline;fill:#000000;stroke:none;stroke-width:0.11088473px;stroke-linecap:butt;stroke-linejoin:miter;stroke-opacity:1" />
      <path
         id="path914-2-1"
         d="m 100.49009,54.528754 c 0.92058,0.435097 1.74589,0.949769 2.29199,1.66415 0,0 0,0 0,0 0.45094,0.582987 0.64483,1.316955 0.59783,1.992092 0,0 0,0 0,0 -0.12954,2.21353 -1.92686,4.416091 -3.04847,6.090119 1.66958,-1.773297 3.36538,-3.667929 3.47847,-6.066673 0.0314,-0.81908 -0.26001,-1.623803 -0.79171,-2.214272 -0.684,-0.750717 -1.61026,-1.173856 -2.52811,-1.465416 z"
         style="display:inline;fill:#000000;stroke:none;stroke-width:0.11088473px;stroke-linecap:butt;stroke-linejoin:miter;stroke-opacity:1" />
      <path
         id="path904-2-24"
         d="m 90.814898,51.546347 c 1.196431,1.130426 2.029605,1.927901 2.394102,3.061999 -0.08618,-1.432472 -1.336706,-2.420938 -2.394102,-3.061999 z"
         style="display:inline;fill:#000000;stroke:none;stroke-width:0.11088473px;stroke-linecap:butt;stroke-linejoin:miter;stroke-opacity:1" />
      <path
         id="path987-9"
         d="m 93.616169,64.145251 c 0.206822,0.287683 0.565399,0.453793 0.868734,0.59274 0,0 0,0 0,0 0.547096,0.256414 1.118206,0.418687 1.670646,0.5115 1.600356,0.272706 3.132898,-0.05915 4.154451,-0.923985 -1.279128,0.648537 -2.767093,0.741289 -4.107057,0.591113 -0.564143,-0.06457 -1.120295,-0.170588 -1.65703,-0.336828 -0.334427,-0.10749 -0.678277,-0.19455 -0.929744,-0.43454 z"
         style="display:inline;fill:#000000;stroke:none;stroke-width:0.11088473px;stroke-linecap:butt;stroke-linejoin:miter;stroke-opacity:1" />
      <path
         id="path997-2"
         d="m 90.972174,50.687625 c -0.13007,0.129014 -0.247134,0.285155 -0.270073,0.475673 -0.01667,0.161071 0.05157,0.322047 0.15737,0.442716 0.336363,0.385581 0.864334,0.549049 1.319505,0.677484 1.643946,0.483638 3.370578,0.550448 4.885759,0.527404 1.6591,-0.02148 3.212875,-0.149002 4.647695,-0.6573 0.23001,-0.08134 0.45569,-0.174551 0.6583,-0.300791 0,0 0,0 0,0 0.13352,-0.0836 0.26501,-0.180261 0.32034,-0.307765 0,0 0,0 0,0 0.0406,-0.08502 0.0145,-0.189731 -0.0408,-0.25552 0,0 0,-1e-6 0,-1e-6 -0.10256,-0.133434 -0.2715,-0.204956 -0.44434,-0.28336 0.16098,0.103027 0.31209,0.197374 0.37809,0.324226 0.0288,0.05067 0.0344,0.122823 0.004,0.15267 -0.0456,0.08636 -0.16518,0.144919 -0.29492,0.215007 0,0 0,0 0,0 -0.19862,0.09645 -0.41832,0.161286 -0.64434,0.219874 -1.49179,0.383671 -3.074433,0.424863 -4.588076,0.451332 -1.651527,0.02518 -3.262062,0.01425 -4.823611,-0.315382 -0.475832,-0.106147 -0.965802,-0.198503 -1.300157,-0.520877 0,0 0,0 0,0 -0.10008,-0.09644 -0.176535,-0.226549 -0.174712,-0.36601 0,0 0,0 0,0 -5.37e-4,-0.171282 0.09686,-0.337814 0.21042,-0.47938 z"
         style="display:inline;fill:#000000;stroke:none;stroke-width:0.11088473px;stroke-linecap:butt;stroke-linejoin:miter;stroke-opacity:1" />
      <path
         id="path904-2-2-9"
         d="m 102.71031,51.49712 c -1.34957,0.827383 -2.40894,1.841485 -2.2294,3.078263 0.15535,-1.251888 1.34529,-2.234596 2.2294,-3.078263 z"
         style="display:inline;fill:#000000;stroke:none;stroke-width:0.11088473px;stroke-linecap:butt;stroke-linejoin:miter;stroke-opacity:1" />
      <rect
         y="55.463005"
         x="96.774521"
         height="6.5707488"
         width="0.85738242"
         id="rect1163-5-4"
         style="display:inline;opacity:1;fill:#757575;fill-opacity:0.97474748;fill-rule:evenodd;stroke:#008000;stroke-width:0.01;stroke-linecap:butt;stroke-linejoin:miter;stroke-miterlimit:4;stroke-dasharray:none" />
      <path
         id="path923-7-2-5-5-7-7-3"
         d="m 95.778784,55.454294 c -0.801999,-0.0078 -1.724607,0.266189 -2.108528,1.0326 -0.316537,0.635201 -0.222155,1.477663 0.32043,1.962491 0.673978,0.677661 1.698539,0.837163 2.370331,1.514126 0.341291,0.344643 0.349547,0.872606 0.255135,1.316823 -0.09626,0.44296 -0.530615,0.731589 -0.970516,0.735446 -0.415198,0.0063 -0.963145,0.07415 -1.215535,-0.339484 -0.231585,-0.37859 -0.307287,-0.824756 -0.413484,-1.24918 h -0.52193 c 0.03445,0.692465 0.0689,1.384927 0.103351,2.077392 l 1.652096,-0.0078 c 0.114873,0.0054 0.298442,0.0016 0.439653,0.0035 1.671597,0.0051 3.343195,0.01012 5.014793,0.01518 l 0.10335,-2.077393 H 100.286 c -0.13055,0.49382 -0.18074,1.066313 -0.574897,1.432731 -0.376551,0.251038 -0.849279,0.147059 -1.276437,0.166738 -0.267589,-0.0012 -0.535178,-0.0025 -0.802767,-0.0037 -0.01167,-0.572995 0.0089,-1.147602 -0.02686,-1.719406 -0.08397,-0.734605 -0.71048,-1.23768 -1.322389,-1.561144 -0.595849,-0.348983 -1.347455,-0.549233 -1.72293,-1.176568 -0.266555,-0.52638 -0.14012,-1.304094 0.448035,-1.552876 0.56583,-0.196866 1.235445,-0.120571 1.742745,0.200903 0.456207,0.301347 0.697108,0.818351 0.878789,1.314776 0.01422,-0.456531 0.01786,-0.912392 0.03978,-1.369854 0.01848,-0.385621 0.274996,-0.409646 0.555245,-0.424292 l -1.85e-4,-0.295447 c 0,0 -1.701367,0.0085 -2.445354,0.0044 z"
         style="font-style:normal;font-variant:normal;font-weight:normal;font-stretch:normal;font-size:medium;line-height:1.25;font-family:'Cambria Math';-inkscape-font-specification:'Cambria Math';letter-spacing:0px;word-spacing:0px;display:inline;fill:#000000;fill-opacity:1;stroke:none;stroke-width:0.26240844" />
    </g>
  </g>
</svg>
