<?xml version="1.0" encoding="UTF-8" standalone="no"?>
<svg
   xmlns:dc="http://purl.org/dc/elements/1.1/"
   xmlns:cc="http://creativecommons.org/ns#"
   xmlns:rdf="http://www.w3.org/1999/02/22-rdf-syntax-ns#"
   xmlns:svg="http://www.w3.org/2000/svg"
   xmlns="http://www.w3.org/2000/svg"
   xmlns:sodipodi="http://sodipodi.sourceforge.net/DTD/sodipodi-0.dtd"
   xmlns:inkscape="http://www.inkscape.org/namespaces/inkscape"
   width="13.451782mm"
   height="19.700785mm"
   viewBox="0 0 13.451782 19.700785"
   version="1.1"
   id="svg949"
   sodipodi:docname="logo.svg"
   inkscape:version="0.92.3 (2405546, 2018-03-11)">
  <sodipodi:namedview
     pagecolor="#ffffff"
     bordercolor="#666666"
     borderopacity="1"
     objecttolerance="10"
     gridtolerance="10"
     guidetolerance="10"
     inkscape:pageopacity="0"
     inkscape:pageshadow="2"
     inkscape:window-width="983"
     inkscape:window-height="851"
     id="namedview1016"
     showgrid="false"
     inkscape:zoom="7.3559413"
     inkscape:cx="25.179438"
     inkscape:cy="44.766537"
     inkscape:window-x="214"
     inkscape:window-y="144"
     inkscape:window-maximized="0"
     inkscape:current-layer="svg949" />
  <defs
     id="defs943">
    <inkscape:path-effect
       effect="skeletal"
       id="path-effect1317-9-5"
       is_visible="true"
       pattern="m 342.33658,216.48594 c 16.53706,1.4455 30.25421,1.28241 42.56267,-1.02899 -14.8547,-0.49884 -28.95423,-0.2193 -42.56267,1.02899 z"
       copytype="single_stretched"
       prop_scale="0.21644688"
       scale_y_rel="false"
       spacing="0"
       normal_offset="0"
       tang_offset="0"
       prop_units="false"
       vertical_pattern="false"
       fuse_tolerance="0" />
    <inkscape:path-effect
       effect="skeletal"
       id="path-effect1400-6"
       is_visible="true"
       pattern="m 208.71439,137.42935 c 16.53706,1.4455 30.25421,1.28242 42.56267,-1.02898 -14.8547,-0.49884 -28.95423,-0.2193 -42.56267,1.02898 z"
       copytype="single_stretched"
       prop_scale="0.13663598"
       scale_y_rel="false"
       spacing="0"
       normal_offset="0"
       tang_offset="0"
       prop_units="false"
       vertical_pattern="false"
       fuse_tolerance="0" />
    <inkscape:path-effect
       effect="skeletal"
       id="path-effect1339-3"
       is_visible="true"
       pattern="m 208.71439,137.42935 c 16.53706,1.4455 30.25421,1.28242 42.56267,-1.02898 -14.8547,-0.49884 -28.95423,-0.2193 -42.56267,1.02898 z"
       copytype="single_stretched"
       prop_scale="0.093264662"
       scale_y_rel="false"
       spacing="0"
       normal_offset="0"
       tang_offset="0"
       prop_units="false"
       vertical_pattern="false"
       fuse_tolerance="0" />
    <inkscape:path-effect
       effect="skeletal"
       id="path-effect1317-3"
       is_visible="true"
       pattern="m 208.57407,137.61644 c 16.53706,1.4455 30.25421,1.28242 42.56267,-1.02898 -14.8547,-0.49884 -28.95423,-0.2193 -42.56267,1.02898 z"
       copytype="single_stretched"
       prop_scale="0.21644688"
       scale_y_rel="false"
       spacing="0"
       normal_offset="0"
       tang_offset="0"
       prop_units="false"
       vertical_pattern="false"
       fuse_tolerance="0" />
  </defs>
  <metadata
     id="metadata946">
    <rdf:RDF>
      <cc:Work
         rdf:about="">
        <dc:format>image/svg+xml</dc:format>
        <dc:type
           rdf:resource="http://purl.org/dc/dcmitype/StillImage" />
        <dc:title />
      </cc:Work>
    </rdf:RDF>
  </metadata>
  <path
     style="display:inline;fill:#000000;stroke:none;stroke-width:0.21615288px;stroke-linecap:butt;stroke-linejoin:miter;stroke-opacity:1"
     d="M 4.2787526,4.4808797 C 2.8941012,5.0301665 1.653918,5.8521739 0.86805078,7.0493968 c 0,0 -2.3e-7,1e-6 -2.3e-7,1e-6 C 0.1491914,8.1595051 -0.07477071,9.4943635 0.02093623,10.719122 0.30505437,14.3189 2.4726764,17.381196 4.2913665,19.700784 2.4801152,16.756233 0.750657,13.878377 0.46301436,10.684829 0.35355071,9.4805531 0.53682641,8.2419197 1.1334529,7.2134188 1.827376,6.005111 3.0228565,5.1176975 4.2787526,4.4808797 Z"
     id="path1309-7"
     inkscape:connector-curvature="0"
     inkscape:path-effect="#path-effect1317-3"
     inkscape:original-d="M 4.2935313,4.5137183 C -1.9581382,7.3272258 -0.16484362,13.103082 4.1342283,19.801619"
     sodipodi:nodetypes="cc" />
  <path
     style="display:inline;fill:#000000;stroke:none;stroke-width:0.21615288px;stroke-linecap:butt;stroke-linejoin:miter;stroke-opacity:1"
     d="M 4.4271154,4.2100224 C 4.983511,3.8786154 5.4087905,3.4198566 5.560454,2.8568099 5.7238401,2.1826589 5.20888,1.6517448 4.7238602,1.5346625 5.2000242,1.7975652 5.5013706,2.3341468 5.3715205,2.8040573 5.2384618,3.3444808 4.847461,3.8244318 4.4271154,4.2100224 Z"
     id="path1331-2"
     inkscape:connector-curvature="0"
     inkscape:path-effect="#path-effect1339-3"
     inkscape:original-d="M 4.4178726,4.1975589 C 5.3562169,3.5016911 6.153293,2.157367 4.7597658,1.4626686"
     sodipodi:nodetypes="cc" />
  <path
     style="display:inline;fill:#000000;stroke:none;stroke-width:0.21615288px;stroke-linecap:butt;stroke-linejoin:miter;stroke-opacity:1"
     d="M 5.725524,0 C 5.0706275,0.00612872 4.4468075,0.02410085 3.8597219,0.27848314 c 0,0 -4e-7,1.4e-7 -4e-7,1.4e-7 -0.1260408,0.0410796 -0.2813266,0.12917019 -0.3566583,0.31848061 0,0 -1e-7,8e-7 -1e-7,8e-7 -0.021763,0.19869854 0.087163,0.34087089 0.2052742,0.39112508 C 4.2414638,1.3116036 4.8887827,1.3048481 5.4106379,1.3097197 6.6591871,1.3368053 7.8410509,1.1351723 8.8912626,0.85259462 7.7004338,0.96804193 6.5581939,1.0544322 5.4220655,1.0226321 4.8484209,0.9997063 4.2825063,1.0320201 3.834003,0.77787306 3.7712575,0.72647335 3.6933758,0.68122346 3.7217626,0.65649109 3.722666,0.58117294 3.8380523,0.525303 3.9459173,0.45797194 4.4756684,0.17214174 5.1192509,0.08796228 5.725524,0 Z"
     id="path1392-5"
     inkscape:connector-curvature="0"
     inkscape:path-effect="#path-effect1400-6"
     inkscape:original-d="M 5.7272476,0.02266706 C 2.220007,0.28936057 2.9810228,1.6973755 8.9056151,0.96958067"
     sodipodi:nodetypes="cc" />
  <path
     style="display:inline;fill:#000000;stroke:none;stroke-width:0.21615288px;stroke-linecap:butt;stroke-linejoin:miter;stroke-opacity:1"
     d="m 9.1802776,4.2959316 c 1.3187644,0.6672476 2.4603604,1.5525666 3.1230404,2.6988847 0,3e-7 0,6e-7 10e-7,9e-7 0.615005,1.0479253 0.779481,2.2939009 0.691502,3.4369998 -0.252194,3.311451 -2.154593,6.645087 -3.4833347,9.220032 C 11.433926,16.778592 13.217378,13.81338 13.4369,10.46611 13.520063,9.1869486 13.257932,7.8827289 12.568721,6.8307937 11.758053,5.60485 10.48356,4.8107447 9.1802776,4.2959316 Z"
     id="path1309-2-8"
     inkscape:connector-curvature="0"
     inkscape:path-effect="#path-effect1317-9-5"
     inkscape:original-d="M 9.1950569,4.2630917 C 15.446728,7.076599 13.653432,12.852456 9.35436,19.550994"
     sodipodi:nodetypes="cc" />
  <path
     style="font-style:normal;font-variant:normal;font-weight:normal;font-stretch:normal;font-size:11.80062866px;line-height:1.25;font-family:MingLiU-ExtB;-inkscape-font-specification:MingLiU-ExtB;letter-spacing:0px;word-spacing:0px;display:inline;fill:#000000;fill-opacity:1;stroke:none;stroke-width:1.1150198"
     d="m 22.947266,25.144531 c -2.342416,0 -4.305067,0.599638 -5.888672,1.800781 -1.748564,1.303369 -2.623047,3.081128 -2.623047,5.330079 0,1.84005 0.809184,3.384462 2.425781,4.636718 2.471864,1.601641 4.048651,2.414152 6.205078,3.541016 v 12.326172 c 0,0.184232 -0.01944,0.341776 -0.0293,0.511719 C 18.899479,52.99406 15.949661,50.485257 14.1875,45.767578 H 13 l 1.484375,8.703125 h 1.089844 c 0.131967,-0.945581 0.759139,-1.417969 1.880859,-1.417969 0.296926,0 1.153619,0.229441 2.572266,0.689454 0.959202,0.337737 1.910671,0.553398 2.855468,0.667968 -0.144164,0.576113 -0.368242,1.03693 -0.691406,1.353516 -0.503877,0.434386 -1.378566,0.707953 -2.625,0.822266 v 0.685546 h 18.697266 l 1.550781,-6.34375 h -0.794922 c -0.928195,2.377694 -2.163019,3.874902 -3.701172,4.492188 -1.060794,0.457249 -3.128773,0.685547 -6.205078,0.685547 -1.644231,0 -2.679198,-0.09054 -3.103515,-0.273438 -0.413017,-0.1885 -0.627462,-0.648907 -0.66211,-1.355469 2.756247,-0.156805 4.977701,-0.961949 6.65625,-2.421874 1.583605,-1.456707 2.375,-3.155382 2.375,-5.097657 -0.164959,-2.325619 -1.731912,-4.460068 -4.701172,-6.402343 -1.456705,-0.811898 -2.89661,-1.609575 -4.34375,-2.414063 v -1.855469 c 0,-1.531783 0.331144,-2.549761 0.994141,-3.052734 0.477358,-0.342937 1.393581,-0.513672 2.746094,-0.513672 v -0.6875 h -9.507813 v 0.6875 c 1.272954,0.09145 2.1351,0.297113 2.585938,0.617188 0.609957,0.502973 0.914062,1.486022 0.914062,2.949218 v 0.59375 c -0.483082,-0.268187 -0.973069,-0.541238 -1.455078,-0.808594 -2.870284,-1.712268 -4.304687,-3.476521 -4.304687,-5.291015 0,-1.405594 0.674681,-2.55475 2.027343,-3.449219 1.154713,-0.715575 2.442682,-1.074219 3.861328,-1.074219 2.4084,0 4.436349,0.817525 6.085938,2.453125 1.352663,1.354482 2.294397,3.080169 2.822266,5.175782 h 1.1875 l -1.089844,-8.740235 h -1.087891 c -0.06598,0.306675 -0.149071,0.613247 -0.248047,0.919922 -0.131967,0.357788 -0.511828,0.537109 -1.138672,0.537109 -0.230942,0 -1.137097,-0.242946 -2.720703,-0.728515 -1.583605,-0.485569 -2.936873,-0.728516 -4.058593,-0.728516 z m 2.386718,16.572266 c 1.972906,1.153209 3.410093,2.152976 4.244141,2.978515 1.055737,1.047807 1.583984,2.235528 1.583984,3.564454 0,1.252256 -0.708306,2.403365 -2.126953,3.451172 -1.065906,0.806475 -2.300016,1.307285 -3.701172,1.507812 z"
     id="text853-9"
     transform="scale(0.26458334)"
     inkscape:connector-curvature="0"
     sodipodi:nodetypes="scsccscccccscccccccccsccccccsccccccsccscsccccccsssccsccc" />
</svg>
