<?xml version="1.0" encoding="UTF-8" standalone="no"?>
<svg
   xmlns:dc="http://purl.org/dc/elements/1.1/"
   xmlns:cc="http://creativecommons.org/ns#"
   xmlns:rdf="http://www.w3.org/1999/02/22-rdf-syntax-ns#"
   xmlns:svg="http://www.w3.org/2000/svg"
   xmlns="http://www.w3.org/2000/svg"
   xmlns:sodipodi="http://sodipodi.sourceforge.net/DTD/sodipodi-0.dtd"
   xmlns:inkscape="http://www.inkscape.org/namespaces/inkscape"
   width="13.451782mm"
   height="19.700785mm"
   viewBox="0 0 13.451782 19.700785"
   version="1.1"
   id="svg949"
   sodipodi:docname="logo.svg"
   inkscape:version="0.92.3 (2405546, 2018-03-11)">
  <sodipodi:namedview
     pagecolor="#ffffff"
     bordercolor="#666666"
     borderopacity="1"
     objecttolerance="10"
     gridtolerance="10"
     guidetolerance="10"
     inkscape:pageopacity="0"
     inkscape:pageshadow="2"
     inkscape:window-width="1920"
     inkscape:window-height="1017"
     id="namedview1016"
     showgrid="false"
     inkscape:zoom="7.3559413"
     inkscape:cx="32.674996"
     inkscape:cy="22.990448"
     inkscape:window-x="-8"
     inkscape:window-y="-8"
     inkscape:window-maximized="1"
     inkscape:current-layer="svg949" />
  <defs
     id="defs943">
    <inkscape:path-effect
       effect="skeletal"
       id="path-effect1317-9-5"
       is_visible="true"
       pattern="m 342.33658,216.48594 c 16.53706,1.4455 30.25421,1.28241 42.56267,-1.02899 -14.8547,-0.49884 -28.95423,-0.2193 -42.56267,1.02899 z"
       copytype="single_stretched"
       prop_scale="0.21644688"
       scale_y_rel="false"
       spacing="0"
       normal_offset="0"
       tang_offset="0"
       prop_units="false"
       vertical_pattern="false"
       fuse_tolerance="0" />
    <inkscape:path-effect
       effect="skeletal"
       id="path-effect1400-6"
       is_visible="true"
       pattern="m 208.71439,137.42935 c 16.53706,1.4455 30.25421,1.28242 42.56267,-1.02898 -14.8547,-0.49884 -28.95423,-0.2193 -42.56267,1.02898 z"
       copytype="single_stretched"
       prop_scale="0.13663598"
       scale_y_rel="false"
       spacing="0"
       normal_offset="0"
       tang_offset="0"
       prop_units="false"
       vertical_pattern="false"
       fuse_tolerance="0" />
    <inkscape:path-effect
       effect="skeletal"
       id="path-effect1339-3"
       is_visible="true"
       pattern="m 208.71439,137.42935 c 16.53706,1.4455 30.25421,1.28242 42.56267,-1.02898 -14.8547,-0.49884 -28.95423,-0.2193 -42.56267,1.02898 z"
       copytype="single_stretched"
       prop_scale="0.093264662"
       scale_y_rel="false"
       spacing="0"
       normal_offset="0"
       tang_offset="0"
       prop_units="false"
       vertical_pattern="false"
       fuse_tolerance="0" />
    <inkscape:path-effect
       effect="skeletal"
       id="path-effect1317-3"
       is_visible="true"
       pattern="m 208.57407,137.61644 c 16.53706,1.4455 30.25421,1.28242 42.56267,-1.02898 -14.8547,-0.49884 -28.95423,-0.2193 -42.56267,1.02898 z"
       copytype="single_stretched"
       prop_scale="0.21644688"
       scale_y_rel="false"
       spacing="0"
       normal_offset="0"
       tang_offset="0"
       prop_units="false"
       vertical_pattern="false"
       fuse_tolerance="0" />
  </defs>
  <metadata
     id="metadata946">
    <rdf:RDF>
      <cc:Work
         rdf:about="">
        <dc:format>image/svg+xml</dc:format>
        <dc:type
           rdf:resource="http://purl.org/dc/dcmitype/StillImage" />
        <dc:title />
      </cc:Work>
    </rdf:RDF>
  </metadata>
  <path
     style="display:inline;fill:#000000;stroke:none;stroke-width:0.21615288px;stroke-linecap:butt;stroke-linejoin:miter;stroke-opacity:1"
     d="M 4.2787526,4.4808797 C 2.8941012,5.0301665 1.653918,5.8521739 0.86805078,7.0493968 c 0,0 -2.3e-7,1e-6 -2.3e-7,1e-6 C 0.1491914,8.1595051 -0.07477071,9.4943635 0.02093623,10.719122 0.30505437,14.3189 2.4726764,17.381196 4.2913665,19.700784 2.4801152,16.756233 0.750657,13.878377 0.46301436,10.684829 0.35355071,9.4805531 0.53682641,8.2419197 1.1334529,7.2134188 1.827376,6.005111 3.0228565,5.1176975 4.2787526,4.4808797 Z"
     id="path1309-7"
     inkscape:connector-curvature="0"
     inkscape:path-effect="#path-effect1317-3"
     inkscape:original-d="M 4.2935313,4.5137183 C -1.9581382,7.3272258 -0.16484362,13.103082 4.1342283,19.801619"
     sodipodi:nodetypes="cc" />
  <path
     style="display:inline;fill:#000000;stroke:none;stroke-width:0.21615288px;stroke-linecap:butt;stroke-linejoin:miter;stroke-opacity:1"
     d="M 4.4271154,4.2100224 C 4.983511,3.8786154 5.4087905,3.4198566 5.560454,2.8568099 5.7238401,2.1826589 5.20888,1.6517448 4.7238602,1.5346625 5.2000242,1.7975652 5.5013706,2.3341468 5.3715205,2.8040573 5.2384618,3.3444808 4.847461,3.8244318 4.4271154,4.2100224 Z"
     id="path1331-2"
     inkscape:connector-curvature="0"
     inkscape:path-effect="#path-effect1339-3"
     inkscape:original-d="M 4.4178726,4.1975589 C 5.3562169,3.5016911 6.153293,2.157367 4.7597658,1.4626686"
     sodipodi:nodetypes="cc" />
  <path
     style="display:inline;fill:#000000;stroke:none;stroke-width:0.21615288px;stroke-linecap:butt;stroke-linejoin:miter;stroke-opacity:1"
     d="M 5.725524,0 C 5.0706275,0.00612872 4.4468075,0.02410085 3.8597219,0.27848314 c 0,0 -4e-7,1.4e-7 -4e-7,1.4e-7 -0.1260408,0.0410796 -0.2813266,0.12917019 -0.3566583,0.31848061 0,0 -1e-7,8e-7 -1e-7,8e-7 -0.021763,0.19869854 0.087163,0.34087089 0.2052742,0.39112508 C 4.2414638,1.3116036 4.8887827,1.3048481 5.4106379,1.3097197 6.6591871,1.3368053 7.8410509,1.1351723 8.8912626,0.85259462 7.7004338,0.96804193 6.5581939,1.0544322 5.4220655,1.0226321 4.8484209,0.9997063 4.2825063,1.0320201 3.834003,0.77787306 3.7712575,0.72647335 3.6933758,0.68122346 3.7217626,0.65649109 3.722666,0.58117294 3.8380523,0.525303 3.9459173,0.45797194 4.4756684,0.17214174 5.1192509,0.08796228 5.725524,0 Z"
     id="path1392-5"
     inkscape:connector-curvature="0"
     inkscape:path-effect="#path-effect1400-6"
     inkscape:original-d="M 5.7272476,0.02266706 C 2.220007,0.28936057 2.9810228,1.6973755 8.9056151,0.96958067"
     sodipodi:nodetypes="cc" />
  <path
     style="display:inline;fill:#000000;stroke:none;stroke-width:0.21615288px;stroke-linecap:butt;stroke-linejoin:miter;stroke-opacity:1"
     d="m 9.1802776,4.2959316 c 1.3187644,0.6672476 2.4603604,1.5525666 3.1230404,2.6988847 0,3e-7 0,6e-7 10e-7,9e-7 0.615005,1.0479253 0.779481,2.2939009 0.691502,3.4369998 -0.252194,3.311451 -2.154593,6.645087 -3.4833347,9.220032 C 11.433926,16.778592 13.217378,13.81338 13.4369,10.46611 13.520063,9.1869486 13.257932,7.8827289 12.568721,6.8307937 11.758053,5.60485 10.48356,4.8107447 9.1802776,4.2959316 Z"
     id="path1309-2-8"
     inkscape:connector-curvature="0"
     inkscape:path-effect="#path-effect1317-9-5"
     inkscape:original-d="M 9.1950569,4.2630917 C 15.446728,7.076599 13.653432,12.852456 9.35436,19.550994"
     sodipodi:nodetypes="cc" />
  <text
     xml:space="preserve"
     style="font-style:normal;font-variant:normal;font-weight:normal;font-stretch:normal;font-size:11.80062866px;line-height:1.25;font-family:MingLiU-ExtB;-inkscape-font-specification:MingLiU-ExtB;letter-spacing:0px;word-spacing:0px;display:inline;fill:#000000;fill-opacity:1;stroke:none;stroke-width:0.29501566"
     x="2.5318413"
     y="15.533513"
     id="text853-9"
     transform="scale(1.1361986,0.88012782)"><tspan
       sodipodi:role="line"
       id="tspan851-5"
       x="2.5318413"
       y="15.533513"
       style="stroke-width:0.29501566">S</tspan></text>
  <text
     xml:space="preserve"
     style="font-style:normal;font-variant:normal;font-weight:normal;font-stretch:normal;font-size:10.00692463px;line-height:1.25;font-family:MingLiU-ExtB;-inkscape-font-specification:MingLiU-ExtB;letter-spacing:0px;word-spacing:0px;display:inline;fill:#000000;fill-opacity:1;stroke:none;stroke-width:0.25017312"
     x="4.8067031"
     y="15.724308"
     id="text857-9"
     transform="scale(1.0770216,0.9284865)"><tspan
       sodipodi:role="line"
       id="tspan855-4"
       x="4.8067031"
       y="15.724308"
       style="stroke-width:0.25017312">L</tspan></text>
</svg>
